<svg width="20" height="20" viewBox="0 0 20 20" fill="none" xmlns="http://www.w3.org/2000/svg">
<path d="M4.375 5.41666H16.4413C16.6857 5.41667 16.9275 5.47035 17.151 5.57424C17.3745 5.67813 17.5747 5.82992 17.7387 6.01984C17.9028 6.20975 18.027 6.43357 18.1035 6.67687C18.1799 6.92017 18.2068 7.17754 18.1825 7.43241L17.6575 12.9324C17.6143 13.3848 17.4122 13.8042 17.0905 14.1093C16.7687 14.4144 16.3502 14.5833 15.9163 14.5833H7.56C7.15529 14.5835 6.76303 14.4367 6.45001 14.1679C6.137 13.8992 5.92257 13.5251 5.84325 13.1093L4.375 5.41666Z" stroke="#A9A1A1" stroke-width="2" stroke-linejoin="round"/>
<path d="M4.375 5.41667L3.66625 2.44392C3.61885 2.24569 3.50958 2.06974 3.35581 1.94402C3.20203 1.81829 3.01256 1.75001 2.8175 1.75H1.75" stroke="#A9A1A1" stroke-width="2" stroke-linecap="round" stroke-linejoin="round"/>
<path d="M7 18.25H8.75" stroke="#A9A1A1" stroke-width="2" stroke-linecap="round" stroke-linejoin="round"/>
<path d="M14 18.25H15.75" stroke="#A9A1A1" stroke-width="2" stroke-linecap="round" stroke-linejoin="round"/>
</svg>
