<svg width="18" height="18" viewBox="0 0 18 18" fill="none" xmlns="http://www.w3.org/2000/svg">
<path d="M9.00001 17.0167C8.87726 17.0163 8.75809 16.9753 8.66112 16.9C5.57223 14.5 3.44445 12.4333 1.95556 10.3945C0.0555632 7.7889 -0.37777 5.38334 0.666674 3.24445C1.41112 1.71667 3.55001 0.466672 6.05001 1.19445C7.24197 1.53875 8.28194 2.27711 9.00001 3.28889C9.71807 2.27711 10.758 1.53875 11.95 1.19445C14.4445 0.477783 16.5889 1.71667 17.3333 3.24445C18.3778 5.38334 17.9445 7.7889 16.0445 10.3945C14.5556 12.4333 12.4278 14.5 9.3389 16.9C9.24192 16.9753 9.12276 17.0163 9.00001 17.0167ZM4.62779 2.10001C4.03293 2.07685 3.44299 2.21614 2.92131 2.50292C2.39963 2.7897 1.9659 3.21314 1.66667 3.72778C0.805563 5.49445 1.19445 7.46112 2.85556 9.73334C4.62088 12.0103 6.68801 14.0363 9.00001 15.7556C11.3116 14.0381 13.3788 12.0139 15.1445 9.7389C16.8111 7.46112 17.1945 5.49445 16.3333 3.73334C15.7778 2.62223 14.1111 1.73889 12.2556 2.26112C11.6606 2.43695 11.109 2.7354 10.6363 3.13727C10.1637 3.53914 9.78038 4.03551 9.51112 4.59445C9.46926 4.69635 9.39806 4.7835 9.30656 4.84483C9.21506 4.90617 9.10739 4.93891 8.99723 4.93891C8.88707 4.93891 8.7794 4.90617 8.6879 4.84483C8.5964 4.7835 8.5252 4.69635 8.48334 4.59445C8.21611 4.03411 7.83347 3.53658 7.3605 3.13446C6.88754 2.73234 6.33493 2.43473 5.7389 2.26112C5.37777 2.15623 5.00383 2.10201 4.62779 2.10001Z" fill="#787272"/>
</svg>
