<svg width="19" height="19" viewBox="0 0 19 19" fill="none" xmlns="http://www.w3.org/2000/svg">
<path d="M9.16113 8.47951C10.1258 8.47951 11.0689 8.23085 11.871 7.76498C12.6731 7.29911 13.2983 6.63695 13.6675 5.86224C14.0366 5.08753 14.1332 4.23505 13.945 3.41262C13.7568 2.59019 13.2923 1.83474 12.6101 1.2418C11.928 0.648857 11.0589 0.245059 10.1127 0.0814676C9.16654 -0.0821242 8.18581 0.00183701 7.29454 0.322734C6.40328 0.643631 5.6415 1.18705 5.10554 1.88427C4.56958 2.5815 4.28351 3.40121 4.28351 4.23976C4.28351 5.36421 4.7974 6.44261 5.71213 7.23771C6.62686 8.03282 7.8675 8.47951 9.16113 8.47951ZM9.16113 1.21136C9.8502 1.21136 10.5238 1.38897 11.0967 1.72174C11.6697 2.0545 12.1162 2.52747 12.3799 3.08084C12.6436 3.63421 12.7126 4.24311 12.5782 4.83057C12.4438 5.41802 12.1119 5.95763 11.6247 6.38115C11.1375 6.80468 10.5167 7.09311 9.84083 7.20996C9.165 7.32681 8.46448 7.26684 7.82785 7.03763C7.19123 6.80842 6.64711 6.42026 6.26428 5.92224C5.88145 5.42422 5.67711 4.83872 5.67711 4.23976C5.67711 3.43657 6.04418 2.66629 6.69756 2.09836C7.35094 1.53042 8.23711 1.21136 9.16113 1.21136V1.21136Z" fill="#899D9C"/>
<path d="M17.8502 12.9434C16.7327 11.9167 15.3861 11.099 13.8927 10.5401C12.3993 9.98129 10.7905 9.69305 9.16454 9.69305C7.53862 9.69305 5.92978 9.98129 4.43638 10.5401C2.94298 11.099 1.59639 11.9167 0.478935 12.9434C0.236666 13.1683 0.102113 13.465 0.102663 13.7731V16.959C0.102663 17.2803 0.249488 17.5884 0.510839 17.8156C0.772189 18.0427 1.12666 18.1704 1.49626 18.1704H16.8259C17.1955 18.1704 17.5499 18.0427 17.8113 17.8156C18.0726 17.5884 18.2195 17.2803 18.2195 16.959V13.7731C18.2219 13.4658 18.0899 13.1692 17.8502 12.9434V12.9434ZM16.8259 16.959H1.49626V13.7671C2.48379 12.8632 3.67257 12.1435 4.99027 11.6516C6.30796 11.1598 7.72701 10.9061 9.16106 10.9061C10.5951 10.9061 12.0142 11.1598 13.3319 11.6516C14.6495 12.1435 15.8383 12.8632 16.8259 13.7671V16.959Z" fill="#899D9C"/>
</svg>
